<svg width="22" height="18" viewBox="0 0 22 18" fill="none" xmlns="http://www.w3.org/2000/svg">
<path d="M0.437561 2H13.5626C13.8041 2 14.0001 1.553 14.0001 1C14.0001 0.447 13.8041 0 13.5626 0H0.437561C0.196061 0 6.10352e-05 0.447 6.10352e-05 1C6.10352e-05 1.553 0.195624 2 0.437561 2Z" fill="white"/>
<path d="M7.46881 18H21.5313C21.7901 18 22.0001 17.553 22.0001 17C22.0001 16.447 21.7901 16 21.5313 16H7.46881C7.21006 16 7.00006 16.447 7.00006 17C7.00006 17.553 7.20959 18 7.46881 18Z" fill="white"/>
<path d="M0.687561 10H21.3126C21.6921 10 22.0001 9.553 22.0001 9C22.0001 8.447 21.6921 8 21.3126 8H0.687561C0.308061 8 6.10352e-05 8.447 6.10352e-05 9C6.10352e-05 9.553 0.307374 10 0.687561 10Z" fill="white"/>
</svg>
